<svg id="against" data-name="against" xmlns="http://www.w3.org/2000/svg" viewBox="0 0 30 30"><defs><style>.panna-1{fill:#ebf0f5;}.panna-2{fill:#a1acc5;}</style></defs><title>against</title><circle class="panna-1" cx="15" cy="15" r="15"/><path class="panna-2" d="M25.49,14.74s-.44-1.48-1-1.48h-6c-.42,0-1.49.28-1.56,1.06v7.94s3,2.2,3,5c.12.12-.11,1,1,1,0,0,2.62-.28,1.07-6h4.21a.9.9,0,0,0,.79-1S27,19.79,25.49,14.74Z" transform="translate(-5 -5.26)"/><path class="panna-2" d="M15.63,13.26H13.82a.46.46,0,0,0-.4.51l-.42,8s0,.49.43.49h2.14a.52.52,0,0,0,.43-.6V13.57h0A.34.34,0,0,0,15.63,13.26Z" transform="translate(-5 -5.26)"/></svg>