<svg id="agree" data-name="agree" xmlns="http://www.w3.org/2000/svg" xmlns:xlink="http://www.w3.org/1999/xlink" viewBox="0 0 30 30"><defs><style>.zilla-1{fill:none;}.zilla-2{fill:#ebf0f5;}.zilla-3{clip-path:url(#zilla-path);}.zilla-4{fill:#a1acc5;}.zilla-5{clip-path:url(#zilla-path-2);}</style><clipPath id="zilla-path" transform="translate(-5 -5.26)"><path class="zilla-1" d="M26,18.26H22c1.5-5.7-1.1-6-1.1-6-1.1,0-.9.9-1,1,0,2.8-3,5-3,5v7.9c0,.8,1.1,1.1,1.5,1.1h6c.6,0,1-1.5,1-1.5,1.6-5,1.6-6.5,1.6-6.5a.9.9,0,0,0-.77-1H26Z"/></clipPath><clipPath id="zilla-path-2" transform="translate(-5 -5.26)"><path class="zilla-1" d="M15.5,18.26h-2a.49.49,0,0,0-.5.48v0l.4,8a.46.46,0,0,0,.4.5h1.8c.2,0,.4-.1.4-.3h0V19a.74.74,0,0,0-.5-.7Z"/></clipPath></defs><title>agree</title><circle class="zilla-2" cx="15" cy="15" r="15"/><g class="zilla-3"><rect class="zilla-4" x="7" y="2" width="20" height="25"/></g><g class="zilla-5"><rect class="zilla-4" x="3" y="8" width="13" height="19"/></g></svg>