<svg id="abstain" data-name="abstain" xmlns="http://www.w3.org/2000/svg" viewBox="0 0 30 30"><defs><style>.cls-1{fill:#ebf0f5;}.cls-2{fill:#a1acc5;}</style></defs><title>abstain</title><circle class="cls-1" cx="15" cy="15" r="15"/><path class="cls-2" d="M27.08,18H27c-1.2,0-4.44.24-6.47.24-1.87,0-5.08-.2-6.27-.24a.19.19,0,0,0-.21.17v0l.49,9.53a.93.93,0,0,0,.92.86H25.64a.91.91,0,0,0,.92-.86l.69-9.52A.21.21,0,0,0,27.08,18Zm-3.74,7.87a.48.48,0,0,1-.67,0l-2-2-2,2,0,0a.46.46,0,0,1-.65,0,.5.5,0,0,1,0-.68l2-2-2-2a.5.5,0,0,1,0-.68.48.48,0,0,1,.67,0l2,2,2-2a.48.48,0,0,1,.6,0,.5.5,0,0,1,.07.68l-2,2,2,2h0A.5.5,0,0,1,23.34,25.86Z" transform="translate(-5.67 -5.26)"/><path class="cls-2" d="M26.86,13.28H14.48a.82.82,0,0,0-.81.82V17a.21.21,0,0,0,.19.21c1,0,3.75.24,6.71.24s5.91-.24,6.91-.24a.21.21,0,0,0,.19-.21V14.1A.82.82,0,0,0,26.86,13.28Z" transform="translate(-5.67 -5.26)"/></svg>